<?xml version="1.0" encoding="UTF-8" standalone="no"?>
<!-- Created with Inkscape (http://www.inkscape.org/) -->

<svg
   xmlns:dc="http://purl.org/dc/elements/1.1/"
   xmlns:cc="http://creativecommons.org/ns#"
   xmlns:rdf="http://www.w3.org/1999/02/22-rdf-syntax-ns#"
   xmlns:svg="http://www.w3.org/2000/svg"
   xmlns="http://www.w3.org/2000/svg"
   xmlns:sodipodi="http://sodipodi.sourceforge.net/DTD/sodipodi-0.dtd"
   xmlns:inkscape="http://www.inkscape.org/namespaces/inkscape"
   width="643.32367"
   height="429.17017"
   id="svg3988"
   version="1.1"
   inkscape:version="0.48.4 r9939"
   sodipodi:docname="nav6_orientation.svg">
  <defs
     id="defs3990" />
  <sodipodi:namedview
     id="base"
     pagecolor="#ffffff"
     bordercolor="#666666"
     borderopacity="1.0"
     inkscape:pageopacity="0.0"
     inkscape:pageshadow="2"
     inkscape:zoom="0.70311159"
     inkscape:cx="91.754088"
     inkscape:cy="255.78975"
     inkscape:document-units="px"
     inkscape:current-layer="layer1"
     showgrid="false"
     inkscape:window-width="1600"
     inkscape:window-height="838"
     inkscape:window-x="-8"
     inkscape:window-y="-8"
     inkscape:window-maximized="1"
     fit-margin-top="0"
     fit-margin-left="0"
     fit-margin-right="0"
     fit-margin-bottom="0" />
  <metadata
     id="metadata3993">
    <rdf:RDF>
      <cc:Work
         rdf:about="">
        <dc:format>image/svg+xml</dc:format>
        <dc:type
           rdf:resource="http://purl.org/dc/dcmitype/StillImage" />
      </cc:Work>
    </rdf:RDF>
  </metadata>
  <g
     inkscape:label="Layer 1"
     inkscape:groupmode="layer"
     id="layer1"
     transform="translate(-11.353862,-365.96185)">
    <rect
       style="fill:#ffffff;stroke:#000000;stroke-width:1.62931061;stroke-opacity:1"
       id="rect3755-7"
       width="394.81409"
       height="287.99844"
       x="191.16441"
       y="402.75732" />
    <text
       xml:space="preserve"
       style="font-size:56.08643341px;font-style:normal;font-weight:normal;line-height:125%;letter-spacing:0px;word-spacing:0px;fill:#000000;fill-opacity:1;stroke:none;font-family:Sans"
       x="253.08247"
       y="668.31879"
       id="text3782"
       sodipodi:linespacing="125%"
       transform="scale(1.0028693,0.99713891)"><tspan
         sodipodi:role="line"
         id="tspan3784"
         x="253.08247"
         y="668.31879">nav6</tspan></text>
    <rect
       style="fill:#ffffff;stroke:#000000;stroke-width:3.28735614;stroke-opacity:1"
       id="rect3786"
       width="49.354465"
       height="40.217354"
       x="-554.5174"
       y="543.55896"
       transform="matrix(0,-1,1,0,0,0)" />
    <rect
       style="fill:#ffffff;stroke:#000000;stroke-width:3.28735614;stroke-opacity:1"
       id="rect3788"
       width="167.80519"
       height="67.028923"
       x="458.6478"
       y="-230.75092"
       transform="matrix(0,1,-1,0,0,0)" />
    <path
       style="fill:#000000;fill-opacity:1;stroke:#000000;stroke-width:0.17778116;stroke-opacity:1"
       d=""
       id="path4040"
       inkscape:connector-curvature="0" />
    <path
       style="fill:#000000;fill-opacity:1;stroke:#000000;stroke-width:0.17778116;stroke-opacity:1"
       d=""
       id="path4074"
       inkscape:connector-curvature="0" />
    <g
       id="g4145"
       transform="matrix(0,-1,1,0,-156.00845,929.34195)">
      <path
         inkscape:connector-curvature="0"
         id="path4026"
         d="m 411.24554,414.46507 c 0,0 0,1.42857 -77.14286,1.42857 -1.42857,80 -1.42857,81.42857 -1.42857,81.42857"
         style="fill:none;stroke:#000000;stroke-width:1px;stroke-linecap:butt;stroke-linejoin:miter;stroke-opacity:1" />
      <path
         inkscape:connector-curvature="0"
         id="path4028"
         d="m 326.0707,488.04162 6.04456,8.5335 c 6.22234,-8.35572 6.22234,-8.35572 6.22234,-8.35572 z"
         style="fill:none;stroke:#000000;stroke-width:1px;stroke-linecap:butt;stroke-linejoin:miter;stroke-opacity:1" />
      <path
         inkscape:connector-curvature="0"
         id="path4032"
         d="m 329.64341,492.03908 c -1.29156,-1.8211 -2.30843,-3.35094 -2.25971,-3.39965 0.0487,-0.0487 1.17335,-0.0305 2.49919,0.0405 l 2.41061,0.12911 -0.11624,3.22615 c -0.0639,1.77438 -0.13184,3.24612 -0.1509,3.27054 -0.0191,0.0244 -1.09139,-1.44559 -2.38295,-3.26668 z"
         style="fill:#000000;fill-opacity:1;stroke:#000000;stroke-width:0.17778116;stroke-opacity:1" />
      <path
         inkscape:connector-curvature="0"
         id="path4034"
         d="m 331.92872,496.91849 c -0.19515,-0.22696 -1.74215,-2.3727 -3.43778,-4.7683 l -3.08297,-4.35564 3.52886,-0.0481 3.52886,-0.0481 0.002,-1.28523 c 0.003,-2.66744 1.23803,-70.76293 1.28383,-70.80329 0.0264,-0.0232 12.12818,-0.13304 26.8929,-0.24402 31.10923,-0.23381 44.59817,-0.53208 49.06421,-1.0849 0.90806,-0.1124 1.27704,-0.0971 1.37509,0.0571 0.41801,0.65737 0.1096,0.72532 -4.57176,1.00722 -8.40201,0.50594 -32.5182,0.88794 -56.22887,0.89064 -12.40141,0.001 -15.7084,0.0484 -15.75973,0.22402 -0.0357,0.12222 -0.31352,15.54252 -0.61731,34.26732 -0.30378,18.7248 -0.58319,34.7051 -0.6209,35.51179 l -0.0686,1.46669 2.06925,0.0156 c 1.13809,0.009 2.44333,0.0686 2.90052,0.13333 l 0.83127,0.11776 -2.91135,3.89495 c -2.51121,3.35961 -2.91867,3.99491 -2.96464,4.62231 -0.044,0.60058 -0.12339,0.73732 -0.45548,0.78446 -0.25147,0.0357 -0.53516,-0.0975 -0.75701,-0.35556 l 0,0 z m 0.33516,-3.3905 -0.024,-2.17781 -0.15353,1.59935 c -0.0844,0.87964 -0.17722,1.67044 -0.20618,1.75733 -0.067,0.20089 -4.21454,-5.53963 -4.21454,-5.83321 0,-0.1321 3.35865,-0.13168 4.02229,5.4e-4 0.50844,0.10127 0.51085,0.10804 0.45947,1.28891 -0.0371,0.85289 -3.4e-4,1.11202 0.13061,0.92043 0.10025,-0.14667 0.1835,-0.75762 0.185,-1.35768 l 0.003,-1.09102 -2.67578,-0.12959 c -1.47168,-0.0713 -2.71892,-0.0865 -2.77165,-0.0337 -0.12323,0.12323 4.90121,7.23429 5.1115,7.23429 0.087,0 0.14733,-0.98001 0.13412,-2.17782 z m 5.17968,-4.84946 c 0,-0.0462 -0.96002,-0.084 -2.13337,-0.084 l -2.13338,0 0,2.95294 0,2.95294 2.13338,-2.86898 c 1.17335,-1.57794 2.13337,-2.90676 2.13337,-2.95294 z"
         style="fill:#000000;fill-opacity:1;stroke:#000000;stroke-width:0.17778116;stroke-opacity:1" />
      <path
         inkscape:connector-curvature="0"
         id="path4036"
         d="m 333.35459,491.29684 0,-2.52449 1.87881,0 1.87881,0 -0.40331,0.57779 c -0.51226,0.73389 -3.00178,4.07792 -3.20291,4.3023 -0.0842,0.0939 -0.1514,-0.95225 -0.1514,-2.3556 z"
         style="fill:#000000;fill-opacity:1;stroke:#000000;stroke-width:0.17778116;stroke-opacity:1" />
      <path
         inkscape:connector-curvature="0"
         id="path4038"
         d="m 333.47073,491.9257 c -0.0627,-0.80544 -0.11449,-1.84444 -0.11507,-2.30889 l -10e-4,-0.84446 1.91115,0.003 c 1.05113,10e-4 1.82283,0.0615 1.71489,0.13334 -0.10795,0.0718 -0.91618,1.10961 -1.79608,2.30617 l -1.59982,2.17555 -0.114,-1.46443 z"
         style="fill:#000000;fill-opacity:1;stroke:#000000;stroke-width:0.17778116;stroke-opacity:1" />
      <path
         inkscape:connector-curvature="0"
         id="path4042"
         d="m 332.15465,497.16309 c -0.12217,-0.0796 -1.6972,-2.22014 -3.50006,-4.75667 l -3.27792,-4.61187 3.54451,-0.0481 3.54451,-0.0481 0.002,-1.6408 c 10e-4,-1.16313 1.21729,-70.26367 1.23981,-70.46496 0.001,-0.0126 6.94269,-0.0739 15.42507,-0.13635 31.6375,-0.23279 38.54306,-0.32321 49.64539,-0.6501 5.86727,-0.17274 10.87958,-0.44111 11.7167,-0.62733 0.25187,-0.056 0.48819,4.4e-4 0.57506,0.13741 0.43255,0.68203 0.15342,0.74734 -4.38049,1.02489 -8.24271,0.5046 -31.35649,0.88035 -55.83611,0.90769 -8.70943,0.01 -15.94393,0.0848 -16.07666,0.16684 -0.19349,0.11958 -0.26941,1.65855 -0.38303,7.76352 -0.26199,14.07814 -1.03248,58.61383 -1.05598,61.03762 l -0.0233,2.40004 2.7721,0.10004 c 1.52465,0.055 2.8141,0.14204 2.86543,0.19337 0.0513,0.0513 -0.65186,1.08634 -1.56267,2.30001 -3.71405,4.94908 -4.10439,5.53226 -4.20441,6.28159 -0.0992,0.74333 -0.50944,1.01066 -1.03008,0.67131 l 0,0 z m 0.11331,-2.83508 -0.0199,-1.3778 -0.20401,0.96671 -0.204,0.96672 -1.17256,-1.58895 c -1.69937,-2.30285 -3.00184,-4.2 -3.00184,-4.37244 0,-0.16277 3.59701,-0.2055 4.17785,-0.0496 0.30772,0.0826 0.34708,0.21679 0.29248,0.99738 -0.0438,0.62627 -0.003,0.86486 0.13333,0.78057 0.10804,-0.0668 0.19643,-0.55668 0.19643,-1.0887 l 0,-0.9673 -1.73337,-0.002 c -0.95335,-8.9e-4 -2.15337,-0.052 -2.66672,-0.11366 -0.67577,-0.0812 -0.93335,-0.0524 -0.93335,0.10411 0,0.26276 4.834,7.11519 5.02232,7.11938 0.0733,0.002 0.12436,-0.61705 0.11339,-1.37485 l 0,6e-5 z m 3.02352,-2.71742 c 1.08586,-1.47014 1.9743,-2.75016 1.9743,-2.8445 0,-0.10023 -0.84975,-0.17152 -2.04448,-0.17152 l -2.04449,0 0,2.8445 c 0,1.56447 0.0316,2.84449 0.0702,2.84449 0.0386,0 0.95862,-1.20283 2.04448,-2.67297 z"
         style="fill:#000000;fill-opacity:1;stroke:#000000;stroke-width:0.17778116;stroke-opacity:1" />
      <path
         inkscape:connector-curvature="0"
         id="path4044"
         d="m 331.08447,495.8491 c -0.58533,-0.81216 -2.12034,-2.95667 -3.41113,-4.7656 l -2.34688,-3.28895 3.56961,-0.0481 3.56962,-0.0481 0.004,-2.5297 c 0.007,-4.0042 1.2048,-69.48819 1.2725,-69.5559 0.0335,-0.0335 10.42012,-0.14697 23.08139,-0.25217 31.33807,-0.26039 47.33833,-0.59166 52.32719,-1.08339 0.96283,-0.0949 1.82285,-0.12791 1.91114,-0.0733 0.0883,0.0546 0.16054,0.24428 0.16054,0.42157 0,0.23572 -0.18138,0.35135 -0.67491,0.43027 -3.77503,0.60365 -29.75526,1.17641 -53.54834,1.18052 -6.89347,0.001 -14.7431,0.0546 -17.44364,0.11874 l -4.91006,0.11659 -0.11431,3.48314 c -0.21419,6.52658 -1.21436,67.21918 -1.11211,67.48563 0.0823,0.2146 0.5368,0.26943 2.37413,0.28643 1.24976,0.0116 2.49864,0.0716 2.77528,0.13334 l 0.503,0.1123 -2.54857,3.46674 c -3.10756,4.22712 -3.13947,4.27635 -3.3111,5.10825 -0.11244,0.545 -0.22426,0.67976 -0.60078,0.72403 -0.39861,0.0469 -0.60987,-0.14992 -1.52686,-1.42225 l 0,0 z m 0.93676,-0.49885 c -0.0604,-0.0978 -0.0251,-0.17778 0.0784,-0.17778 0.1065,0 0.17852,-0.32816 0.16581,-0.75557 l -0.0225,-0.75557 -0.184,0.65576 -0.184,0.65576 -1.13134,-1.49988 c -1.45395,-1.9276 -3.07803,-4.31273 -3.07803,-4.52042 0,-0.0889 0.42,-0.191 0.93335,-0.22692 0.86437,-0.0605 0.84373,-0.0677 -0.27936,-0.0982 l -1.21271,-0.0329 1.36838,2.00004 c 1.51384,2.21265 3.4954,4.93342 3.59304,4.93342 0.0345,0 0.0134,-0.08 -0.0471,-0.17778 z m 3.0823,-3.60007 c 1.67923,-2.26525 2.42469,-3.37546 1.64136,-2.44449 -0.20569,0.24445 -0.99264,1.26933 -1.7488,2.27752 l -1.37482,1.83307 -0.11777,-0.85527 c -0.0648,-0.4704 -0.12477,-1.51228 -0.13333,-2.31529 l -0.0156,-1.46003 1.64448,-0.0623 1.64447,-0.0623 -1.68892,0.0112 -1.68892,0.0112 -0.0491,2.71117 c -0.027,1.49114 -0.006,2.71116 0.0458,2.71116 0.0522,0 0.88068,-1.06002 1.84109,-2.3556 l 0,-2e-5 z m -2.7079,-2.90396 c -0.0697,-0.18178 -0.38196,-0.24375 -1.12439,-0.2232 -0.64358,0.0178 -0.7952,0.0524 -0.40558,0.0924 1.29226,0.13288 1.42056,0.20513 1.44888,0.81585 0.0259,0.55894 0.0287,0.56084 0.10215,0.0705 0.0415,-0.27715 0.0321,-0.61716 -0.0211,-0.75557 z"
         style="fill:#000000;fill-opacity:1;stroke:#000000;stroke-width:0.17778116;stroke-opacity:1" />
      <path
         inkscape:connector-curvature="0"
         id="path4046"
         d="m 330.74177,495.4044 c -1.99275,-2.7107 -5.38733,-7.50281 -5.38733,-7.60527 0,-0.0473 1.58003,-0.10764 3.51118,-0.13416 l 3.51118,-0.0482 0.29349,-16.88921 c 0.16142,-9.28907 0.4221,-24.28935 0.57929,-33.33397 0.15718,-9.04462 0.33309,-17.65532 0.39091,-19.13489 l 0.10513,-2.69013 10.16024,-0.11132 c 5.58813,-0.0612 18.04039,-0.1925 27.67168,-0.29173 18.8586,-0.1943 28.22031,-0.39595 34.40066,-0.74101 5.35907,-0.2992 5.14512,-0.30524 5.20964,0.14707 0.0434,0.30434 -0.061,0.3992 -0.53335,0.48448 -3.01491,0.54439 -28.02518,1.17572 -46.73669,1.17978 -4.55509,9.9e-4 -12.97402,0.0549 -18.70872,0.11978 -9.2996,0.10524 -10.43616,0.14848 -10.51382,0.40001 -0.087,0.28172 -0.63959,28.85795 -0.98354,50.86076 -0.10012,6.40457 -0.22297,13.5047 -0.27301,15.77808 -0.05,2.27337 -0.0694,4.14211 -0.0431,4.15273 0.0263,0.0106 1.26129,0.0706 2.74435,0.13334 1.48306,0.0627 2.74785,0.16544 2.81064,0.2283 0.0628,0.0629 -1.10881,1.7829 -2.60356,3.8223 -1.73292,2.36435 -2.82701,4.03011 -3.01931,4.59691 -0.24033,0.70837 -0.39016,0.8999 -0.73773,0.94305 -0.37147,0.0461 -0.64552,-0.23068 -1.84823,-1.8667 l 0,0 z m 1.54069,-1.03194 c 0,-0.0978 -0.0776,-0.0578 -0.17233,0.0889 -0.0948,0.14667 -0.17234,0.34667 -0.17234,0.44445 0,0.0978 0.0775,0.0578 0.17234,-0.0889 0.0948,-0.14667 0.17233,-0.34667 0.17233,-0.44445 z m -0.88346,0.0218 c 0,-0.0369 -0.14,-0.17692 -0.31112,-0.31111 -0.28197,-0.22114 -0.28826,-0.21485 -0.0671,0.0671 0.23225,0.29614 0.37824,0.39031 0.37824,0.24399 z m 2.04448,-1.88847 c -0.0699,-0.69604 -0.16709,-1.22552 -0.21598,-1.17663 -0.0489,0.0489 -0.0317,0.65837 0.0382,1.35441 0.0699,0.69604 0.1671,1.22553 0.21599,1.17664 0.0489,-0.0489 0.0317,-0.65838 -0.0382,-1.35442 z m -5.54393,-3.0298 c -0.27925,-0.47272 -0.28611,-0.56196 -0.0545,-0.7084 0.21179,-0.1339 0.18468,-0.16808 -0.13501,-0.17026 -0.49217,-0.003 -0.4948,0.0686 -0.0299,0.82075 0.46096,0.74586 0.65627,0.7974 0.21945,0.0579 z m 4.29947,-0.7036 c -0.0604,-0.0978 -0.18988,-0.17778 -0.28766,-0.17778 -0.0978,0 -0.12834,0.08 -0.0679,0.17778 0.0604,0.0978 0.18988,0.17778 0.28766,0.17778 0.0978,0 0.12834,-0.08 0.0679,-0.17778 z"
         style="fill:#000000;fill-opacity:1;stroke:#000000;stroke-width:0.17778116;stroke-opacity:1" />
      <path
         inkscape:connector-curvature="0"
         id="path4048"
         d="m 403.22772,422.08481 0,0 7.28903,-7.64459 c -8.17793,-5.86678 -8.35571,-5.86678 -8.35571,-5.86678 0.17778,13.1558 0.17778,13.1558 0.17778,13.1558"
         style="fill:none;stroke:#000000;stroke-width:1px;stroke-linecap:butt;stroke-linejoin:miter;stroke-opacity:1" />
      <path
         inkscape:connector-curvature="0"
         id="path4050"
         d="m 402.86703,418.65129 0,-2.91004 2.54296,-0.12712 c 1.39863,-0.0699 2.67947,-0.0982 2.8463,-0.0629 0.21948,0.0464 -0.48359,0.88615 -2.54296,3.03716 l -2.8463,2.97296 0,-2.91003 z"
         style="fill:#000000;fill-opacity:1;stroke:#000000;stroke-width:0.17778116;stroke-opacity:1" />
      <path
         inkscape:connector-curvature="0"
         id="path4052"
         d="m 402.8197,412.06667 c -0.0525,-1.27493 -0.0833,-2.32956 -0.0685,-2.34362 0.0148,-0.0141 1.41039,0.95802 3.10132,2.16019 l 3.0744,2.18576 -1.82993,0.10384 c -1.00647,0.0571 -2.35914,0.12816 -3.00594,0.15787 l -1.176,0.054 -0.0954,-2.31805 z"
         style="fill:#000000;fill-opacity:1;stroke:#000000;stroke-width:0.17778116;stroke-opacity:1" />
      <path
         inkscape:connector-curvature="0"
         id="path4054"
         d="m 331.35865,496.29366 c -1.06247,-1.39233 -6.00421,-8.35664 -6.00421,-8.46163 0,-0.046 1.51635,-0.1162 3.36967,-0.15606 1.85332,-0.0399 3.42844,-0.13125 3.50028,-0.20309 0.0718,-0.0718 0.31288,-10.66905 0.53567,-23.54936 0.57002,-32.95646 0.88018,-48.20858 0.98241,-48.31081 0.0484,-0.0484 8.28109,-0.1672 18.29486,-0.264 21.39967,-0.20687 41.0995,-0.483 46.16294,-0.64707 l 3.60007,-0.11665 0,-3.35695 0,-3.35696 1.3721,0.92588 c 0.75465,0.50924 2.73749,1.89654 4.4063,3.0829 1.6688,1.18636 3.1714,2.20967 3.3391,2.27402 0.45531,0.17472 0.38067,0.78172 -0.1113,0.9052 -0.22892,0.0575 -1.917,1.66616 -3.7513,3.5749 -1.8343,1.90874 -3.38704,3.46921 -3.45054,3.46771 -0.0635,-0.002 -0.23126,-0.076 -0.37281,-0.16555 -0.20086,-0.12708 0.4181,-0.86824 2.81859,-3.37512 l 3.07597,-3.21229 -1.39635,0.0177 c -1.90294,0.0242 -2.73724,0.29625 -0.98152,0.32012 0.75671,0.0103 1.27887,0.0901 1.24447,0.19013 -0.0326,0.0948 -1.17928,1.35808 -2.54819,2.80723 l -2.48894,2.63482 -0.0492,-2.65432 c -0.0271,-1.45987 -0.0145,-2.68901 0.0279,-2.73142 0.0424,-0.0424 0.62456,-0.14072 1.29367,-0.21845 l 1.21657,-0.14132 -1.37781,-0.0234 -1.3778,-0.0234 0,3.02228 c 0,2.82043 -0.0219,3.02228 -0.3284,3.02228 -0.29305,0 -0.3408,-0.21526 -0.44364,-2.00004 -0.0634,-1.10002 -0.11561,-2.43232 -0.11606,-2.96066 l -8.1e-4,-0.96061 -4.2223,0.11837 c -9.07463,0.2544 -24.05409,0.45672 -42.0008,0.56727 -19.15815,0.11802 -20.56508,0.141 -20.76322,0.33914 -0.0626,0.0626 -0.17225,2.6099 -0.24374,5.66075 -0.2453,10.46769 -1.0104,54.56789 -1.0601,61.10362 l -0.0304,4.00008 1.04855,0.11404 c 0.5767,0.0627 1.72856,0.12395 2.55969,0.13606 0.83112,0.0121 1.61809,0.0898 1.74881,0.17267 0.17879,0.11333 -0.41294,1.04871 -2.38815,3.77513 -1.44421,1.99346 -2.80645,4.06448 -3.02722,4.60227 -0.57832,1.40882 -1.02041,1.4205 -2.06279,0.0545 z m 71.52553,-83.89318 -0.14518,-1.76295 -0.0195,2.04448 c -0.0127,1.32971 0.0381,1.94606 0.14518,1.76295 0.0979,-0.1674 0.1058,-0.99619 0.0195,-2.04448 l 0,0 z m 5.02798,1.90718 1.5784,-0.11451 -3.32343,-2.3556 c -1.82788,-1.29558 -3.39818,-2.3556 -3.48954,-2.3556 -0.0914,0 -0.16612,0.24 -0.16612,0.53334 0,0.5554 0.28675,0.74233 0.38697,0.25226 0.0423,-0.2069 0.77298,0.22144 2.76864,1.62305 1.49114,1.04727 2.71117,1.97377 2.71117,2.05889 0,0.0851 -0.70002,0.16345 -1.55559,0.17406 -0.85557,0.0106 -2.03559,0.0789 -2.62227,0.15165 -1.03473,0.12838 -1.01875,0.13256 0.53334,0.13966 0.88002,0.004 2.31031,-0.0442 3.17843,-0.1072 z"
         style="fill:#000000;fill-opacity:1;stroke:#000000;stroke-width:0.17778116;stroke-opacity:1" />
      <path
         inkscape:connector-curvature="0"
         id="path4056"
         d="m 331.54728,496.5617 c -0.83804,-1.05213 -6.18168,-8.56616 -6.18778,-8.70103 -0.003,-0.0614 1.55497,-0.17016 3.46167,-0.24165 l 3.46674,-0.12999 0.0119,-1.80283 c 0.007,-0.99156 0.0412,-2.56285 0.0769,-3.49175 0.0358,-0.92891 0.11158,-4.32898 0.16845,-7.5557 0.89921,-51.01632 1.05881,-58.88757 1.19681,-59.02557 0.0528,-0.0528 7.44731,-0.17296 16.43235,-0.26714 20.4129,-0.21395 40.64561,-0.49259 46.8666,-0.64544 l 4.7519,-0.11675 0.0482,-3.36524 0.0482,-3.36523 4.62231,3.2295 c 2.54227,1.77623 4.64576,3.36653 4.67442,3.53401 0.0325,0.18995 -0.14445,0.40161 -0.4704,0.56262 -0.28738,0.14196 -2.0074,1.78949 -3.82226,3.66117 -2.93895,3.03096 -3.33392,3.37809 -3.61219,3.17461 -0.28285,-0.20682 -0.10821,-0.4449 1.84415,-2.51416 1.18612,-1.25713 2.52327,-2.64236 2.97145,-3.07829 0.44818,-0.43592 0.81488,-0.85593 0.81488,-0.93335 0,-0.1869 -1.76979,-0.15742 -2.22226,0.037 -0.26638,0.11446 -0.14003,0.15592 0.50371,0.16528 0.4726,0.007 0.83261,0.0885 0.80001,0.1814 -0.0631,0.17995 -4.9637,5.5201 -5.0657,5.5201 -0.0332,0 -0.0603,-1.23208 -0.0603,-2.73795 l 0,-2.73795 0.66668,-0.18389 0.66668,-0.1839 -0.71113,0.0329 -0.71112,0.0329 -0.0487,2.97783 c -0.045,2.7479 -0.0738,2.97784 -0.37366,2.97784 -0.27922,0 -0.34097,-0.20629 -0.43909,-1.4667 -0.0628,-0.80668 -0.11466,-2.13727 -0.11524,-2.95688 l -0.001,-1.49018 -3.77785,0.11785 c -8.06114,0.25146 -22.50506,0.45416 -40.48966,0.56822 -10.31575,0.0654 -19.63593,0.16839 -20.7115,0.22882 l -1.9556,0.10989 -0.12131,1.68892 c -0.17084,2.37833 -1.20592,58.96403 -1.21026,66.1621 l -0.002,2.96089 2.67041,0.12877 c 1.46872,0.0708 2.71226,0.1965 2.76342,0.27927 0.0512,0.0828 -1.03206,1.72579 -2.40715,3.65113 -1.37508,1.92535 -2.7496,4.00734 -3.05449,4.62665 -0.69004,1.40167 -1.08381,1.4785 -1.95728,0.38188 l 0,0 z m 77.6024,-82.413 c 0.078,-0.12798 -6.16619,-4.57786 -6.42381,-4.57786 -0.069,0 -0.15108,0.18 -0.18232,0.40001 -0.0557,0.39208 0.23591,0.57383 0.3537,0.22046 0.0654,-0.19633 0.4904,0.0694 3.48096,2.17637 1.10002,0.77502 2.00004,1.47842 2.00004,1.56311 0,0.0847 -0.38001,0.18395 -0.84446,0.22057 -0.70806,0.0558 -0.65232,0.0718 0.34507,0.0986 0.65424,0.0176 1.22611,-0.028 1.27082,-0.10129 l 0,0 z m -6.33788,-1.06668 c -0.0447,-0.17112 -0.0813,-0.0311 -0.0813,0.31111 0,0.34223 0.0366,0.48223 0.0813,0.31112 0.0447,-0.17111 0.0447,-0.45112 0,-0.62223 l 0,0 z"
         style="fill:#000000;fill-opacity:1;stroke:#000000;stroke-width:0.17778116;stroke-opacity:1" />
      <path
         inkscape:connector-curvature="0"
         id="path4060"
         d="m 331.79894,496.90584 c -0.20524,-0.22001 -1.77086,-2.36005 -3.47914,-4.75565 -2.69628,-3.7811 -3.05566,-4.36222 -2.72455,-4.40556 0.20978,-0.0275 1.78145,-0.10746 3.4926,-0.17778 l 3.11117,-0.12786 0.12602,-4.53342 c 0.0693,-2.49338 0.28914,-13.7336 0.4885,-24.97825 0.64502,-36.38003 0.72722,-40.51983 0.82292,-41.44722 l 0.0942,-0.91312 5.5454,-0.10877 c 3.04997,-0.0598 13.14554,-0.18972 22.43461,-0.28864 20.58465,-0.21921 39.14895,-0.5141 39.68965,-0.63045 0.39728,-0.0855 0.4,-0.10841 0.4,-3.37164 0,-1.80706 0.0427,-3.28556 0.095,-3.28556 0.30418,0 9.24699,6.47161 9.28668,6.72046 0.0282,0.17655 -0.19328,0.46506 -0.53334,0.69487 -0.31982,0.21614 -2.04377,1.86334 -3.831,3.66046 -2.87115,2.88704 -3.28514,3.24104 -3.55562,3.04039 -0.34395,-0.25515 -0.66258,0.12961 3.51889,-4.24933 l 2.20694,-2.31115 -0.62205,-0.0529 c -0.34213,-0.0291 -0.8193,0.0258 -1.06039,0.12207 -0.42486,0.16959 -0.42057,0.17531 0.13947,0.18623 0.31778,0.006 0.57778,0.0624 0.57778,0.12489 0,0.15267 -1.70227,2.08606 -3.55562,4.03838 l -1.51114,1.59182 -0.10436,-0.96076 -0.10436,-0.96077 -0.029,1.02225 c -0.0246,0.86718 -0.0791,1.02224 -0.35922,1.02224 -0.27359,0 -0.34983,-0.18745 -0.44445,-1.09277 -0.0628,-0.60102 -0.11422,-1.93257 -0.11422,-2.959 l 0,-1.86624 -2.71116,0.11264 c -4.58511,0.1905 -23.07768,0.46612 -43.90578,0.65439 -10.92348,0.0987 -19.97255,0.22238 -20.10905,0.27476 -0.19623,0.0753 -0.27307,0.88419 -0.36703,3.86353 -0.31821,10.08958 -1.26036,66.31271 -1.11747,66.68508 0.0646,0.16843 0.79527,0.26824 2.63823,0.36037 1.40186,0.0701 2.61946,0.19629 2.70579,0.28046 0.0896,0.0874 -0.64473,1.28327 -1.71153,2.78726 -2.46802,3.47949 -3.4351,4.94056 -3.88417,5.86821 -0.42959,0.88742 -0.9397,1.00874 -1.53923,0.36608 l 0,0 z m 76.93487,-82.81207 c 0,-0.10355 0.1,-0.13182 0.22222,-0.0628 0.14963,0.0845 0.16415,0.0661 0.0444,-0.0564 -0.27796,-0.2843 -6.06487,-4.31486 -6.19509,-4.31486 -0.0639,0 -0.11614,0.12472 -0.11614,0.27716 0,0.15244 0.0753,0.23061 0.16738,0.17372 0.0921,-0.0569 0.91803,0.40549 1.83548,1.02752 2.88552,1.95638 3.71928,2.62334 3.61597,2.89255 -0.0561,0.14631 0.0127,0.25136 0.16464,0.25136 0.1436,0 0.26109,-0.0847 0.26109,-0.18827 z"
         style="fill:#000000;fill-opacity:1;stroke:#000000;stroke-width:0.17778116;stroke-opacity:1" />
      <path
         inkscape:connector-curvature="0"
         id="path4062"
         d="m 331.7614,496.86867 c -0.22588,-0.24044 -1.79666,-2.38048 -3.49063,-4.75564 l -3.07993,-4.31848 1.10404,-0.11255 c 0.60723,-0.0619 2.12604,-0.12191 3.37515,-0.13334 2.18354,-0.02 2.27686,-0.0362 2.42008,-0.42079 0.14984,-0.40236 0.27272,-5.95059 0.90662,-40.93411 0.4888,-26.97615 0.54107,-29.44427 0.63682,-30.07006 l 0.0854,-0.55839 3.59565,-0.10449 c 1.97761,-0.0575 11.4758,-0.18783 21.1071,-0.28969 22.12961,-0.23403 39.61414,-0.501 41.71959,-0.63702 l 1.62993,-0.10529 0.0213,-3.22095 c 0.0117,-1.77153 0.0537,-3.25331 0.0932,-3.29285 0.0849,-0.0849 -0.0593,-0.18256 5.20357,3.52679 2.42316,1.70789 4.12984,3.02692 4.12478,3.18789 -0.005,0.15101 -0.44187,0.62863 -0.97138,1.06136 -0.52952,0.43273 -2.24758,2.08017 -3.81793,3.66099 -2.52021,2.537 -2.89118,2.84766 -3.16203,2.64793 -0.28298,-0.20867 -0.26398,-0.27218 0.2443,-0.81649 0.30313,-0.32462 1.60313,-1.71024 2.88888,-3.07916 1.28574,-1.36891 2.33775,-2.54893 2.33779,-2.62227 10e-5,-0.19092 -0.75084,-0.15963 -1.06662,0.0445 -0.2279,0.14728 -0.22143,0.17273 0.0444,0.17506 0.17111,0.001 0.31111,0.0633 0.31111,0.13736 0,0.18153 -1.66043,2.08057 -3.5693,4.0822 -1.36387,1.43017 -1.57278,1.58875 -1.63938,1.24447 l -0.0763,-0.39455 -0.0242,0.40001 c -0.0159,0.26311 -0.13763,0.40001 -0.35561,0.40001 -0.42617,0 -0.55751,-0.8901 -0.55751,-3.77821 l 0,-2.12855 -2.44449,0.11031 c -4.14988,0.18725 -21.26893,0.4495 -41.82302,0.64067 -10.80465,0.10049 -20.29893,0.22832 -21.0984,0.28407 l -1.45358,0.10135 -0.0995,0.65181 c -0.16614,1.08824 -0.65853,25.05001 -0.98699,48.0305 -0.0971,6.79568 -0.21921,14.48864 -0.27129,17.09547 l -0.0947,4.73968 0.66868,0.0976 c 0.36778,0.0537 1.56941,0.14963 2.6703,0.21327 1.10089,0.0636 2.04494,0.18581 2.09788,0.27148 0.0529,0.0857 -0.9182,1.61666 -2.15809,3.40222 -1.2399,1.78556 -2.61476,3.86672 -3.05523,4.6248 -0.89177,1.53479 -1.26641,1.71193 -1.99051,0.94116 l 0,0 z m 76.97241,-82.93224 c 0,-0.0808 -0.22001,-0.28843 -0.4889,-0.46148 -0.48407,-0.31153 -0.48582,-0.31115 -0.17778,0.038 0.17111,0.19395 0.31112,0.45106 0.31112,0.57135 0,0.1203 0.08,0.16928 0.17778,0.10885 0.0978,-0.0604 0.17778,-0.17596 0.17778,-0.25672 l 0,0 z m -5.15566,-3.74336 c -0.24444,-0.19121 -0.5632,-0.34943 -0.70835,-0.35161 -0.14514,-0.002 0.0149,0.15146 0.35557,0.34141 0.7956,0.44356 0.91107,0.4469 0.35278,0.0102 l 0,0 z"
         style="fill:#000000;fill-opacity:1;stroke:#000000;stroke-width:0.17778116;stroke-opacity:1" />
      <path
         inkscape:connector-curvature="0"
         id="path4064"
         d="m 331.71513,496.81695 c -0.25384,-0.2689 -1.8338,-2.40894 -3.51103,-4.75565 l -3.0495,-4.26675 0.67771,-0.12309 c 0.37274,-0.0677 1.68773,-0.1277 2.9222,-0.13333 1.23446,-0.006 2.48674,-0.0587 2.78284,-0.11792 l 0.53836,-0.10767 0.10941,-2.33682 c 0.11225,-2.39765 0.20928,-7.22269 0.81029,-40.2931 0.47013,-25.86886 0.55223,-28.96678 0.77126,-29.10215 0.10116,-0.0625 11.59005,-0.25534 25.53086,-0.42848 32.99753,-0.40982 42.16086,-0.60625 42.35224,-0.90789 0.0798,-0.1258 0.14635,-1.60876 0.14785,-3.29546 0.002,-1.6867 0.0725,-3.06672 0.1579,-3.06672 0.13592,0 3.02846,2.0126 7.80053,5.42753 0.80668,0.57727 1.46669,1.14677 1.46669,1.26556 0,0.1188 -0.90001,1.07815 -2.00003,2.13191 -1.10002,1.05375 -2.81624,2.73088 -3.81382,3.72695 -1.61702,1.61457 -1.84819,1.78587 -2.13101,1.57906 -0.30277,-0.22138 -0.30113,-0.25095 0.036,-0.64803 l 0.35321,-0.41607 -0.40001,0.33867 c -0.30554,0.25869 -0.40332,0.27969 -0.41405,0.0889 -0.0101,-0.18075 -0.0388,-0.18837 -0.1037,-0.0276 -0.0493,0.12223 -0.23301,0.22223 -0.4082,0.22223 -0.44069,0 -0.54075,-0.64881 -0.54075,-3.5065 l 0,-2.39536 -2.00004,0.10784 c -3.17399,0.17113 -20.04772,0.4445 -39.24519,0.63581 -9.72907,0.0969 -19.46145,0.22584 -21.6275,0.28642 l -3.93828,0.11015 -0.10792,1.53636 c -0.14432,2.05463 -0.39786,13.54472 -0.73217,33.1814 -0.47793,28.07275 -0.5721,35.55238 -0.44933,35.69079 0.0656,0.074 1.23482,0.22096 2.59818,0.32657 1.36335,0.10561 2.54814,0.25838 2.63286,0.33949 0.0849,0.0813 -0.87716,1.65012 -2.14371,3.49572 -1.26377,1.84154 -2.64222,3.92827 -3.06324,4.63717 -0.86874,1.46277 -1.24266,1.61168 -2.00887,0.80002 z m 74.52974,-78.60136 c 0,-0.0489 -0.24,0.14105 -0.53334,0.42209 -0.29334,0.28103 -0.53334,0.55097 -0.53334,0.59986 0,0.0489 0.24,-0.14104 0.53334,-0.42208 0.29334,-0.28104 0.53334,-0.55098 0.53334,-0.59987 l 0,0 z m 2.33977,-2.73158 c -0.21653,-0.21653 -0.73206,0.0334 -0.62804,0.3045 0.0491,0.12792 -0.1712,0.54131 -0.48952,0.91864 -0.47004,0.55717 -0.40563,0.52052 0.34287,-0.19507 0.5069,-0.48462 0.85551,-0.94725 0.77469,-1.02807 l 0,0 z"
         style="fill:#000000;fill-opacity:1;stroke:#000000;stroke-width:0.17778116;stroke-opacity:1" />
      <path
         inkscape:connector-curvature="0"
         id="path4066"
         d="m 411.05009,414.44022 -9.06684,8.88906 0,0 0,0"
         style="fill:none;stroke:#000000;stroke-width:1px;stroke-linecap:butt;stroke-linejoin:miter;stroke-opacity:1" />
      <path
         inkscape:connector-curvature="0"
         id="path4068"
         d="m 401.98325,420.66256 c 0,2.66672 0,2.66672 0,2.66672"
         style="fill:none;stroke:#000000;stroke-width:1px;stroke-linecap:butt;stroke-linejoin:miter;stroke-opacity:1" />
      <path
         inkscape:connector-curvature="0"
         id="path4070"
         d="m 331.72961,496.82482 c -1.07828,-1.15914 -6.60164,-8.95194 -6.45142,-9.10218 0.0582,-0.0582 1.54404,-0.15469 3.30182,-0.21435 1.75778,-0.0597 3.26791,-0.18043 3.35585,-0.26838 0.196,-0.196 0.42672,-9.17692 0.88547,-34.46825 0.52368,-28.87029 0.71904,-36.96085 0.89686,-37.14279 0.0936,-0.0958 9.97036,-0.29384 23.67673,-0.47481 19.52683,-0.25782 41.85117,-0.64414 43.6943,-0.75613 0.41312,-0.0251 0.45239,-0.10846 0.55701,-1.18258 0.0619,-0.63557 0.1219,-2.09559 0.13333,-3.2445 0.0114,-1.14891 0.0921,-2.08893 0.17932,-2.08893 0.0872,0 1.42722,0.88953 2.97783,1.97675 5.311,3.7238 6.30354,4.48334 6.2492,4.78219 -0.0286,0.15745 -2.02642,2.22539 -4.43952,4.59542 -5.51624,5.41777 -5.17196,5.39883 -5.00672,0.27548 0.067,-2.07726 0.048,-3.61392 -0.0453,-3.66798 -0.0884,-0.0512 -2.48069,-0.028 -5.3163,0.0515 -2.83561,0.0795 -11.63578,0.22948 -19.55593,0.33334 -35.15342,0.46097 -41.60859,0.56795 -41.73226,0.69162 -0.16717,0.16717 -0.432,8.54666 -0.66953,21.1845 -0.37485,19.94494 -0.70717,41.08845 -0.70863,45.08745 l -0.002,4.10889 1.3778,0.11744 c 0.75779,0.0646 1.95781,0.16666 2.66672,0.22682 0.7089,0.0602 1.28891,0.17556 1.28891,0.25643 0,0.0809 -1.36742,2.20988 -3.03871,4.73113 -3.29861,4.97617 -3.42786,5.10289 -4.27527,4.19194 z m 71.20629,-75.28615 c -0.13699,-0.22164 -0.60221,0.18484 -0.60221,0.52617 0,0.2294 0.0555,0.22221 0.35137,-0.0455 0.19325,-0.17489 0.30613,-0.39118 0.25084,-0.48064 l 0,0 z m 5.44235,-5.74549 c 0.18126,-0.21841 0.16911,-0.26667 -0.0671,-0.26667 -0.15864,0 -0.28844,0.12 -0.28844,0.26667 0,0.14667 0.0302,0.26667 0.0671,0.26667 0.0369,0 0.16671,-0.12 0.28844,-0.26667 z"
         style="fill:#000000;fill-opacity:1;stroke:#000000;stroke-width:0.17778116;stroke-opacity:1" />
      <path
         inkscape:connector-curvature="0"
         id="path4072"
         d="m 331.83044,497.00076 c -0.42771,-0.42771 -3.00044,-3.92151 -4.99155,-6.7786 -1.18879,-1.70581 -1.60972,-2.44072 -1.4471,-2.52653 0.12613,-0.0665 1.62691,-0.1752 3.33507,-0.24146 2.10616,-0.0817 3.14814,-0.18907 3.23746,-0.33359 0.0724,-0.11721 0.12572,-0.45352 0.11842,-0.74736 -0.007,-0.29384 0.0775,-4.13433 0.18855,-8.53441 0.11101,-4.40009 0.39793,-18.44035 0.6376,-31.2006 0.23966,-12.76024 0.48896,-24.97327 0.55399,-27.14006 l 0.11825,-3.93961 1.97566,-0.10065 c 1.08661,-0.0554 11.57584,-0.22398 23.3094,-0.37471 24.61279,-0.31618 40.06579,-0.58567 41.61817,-0.72579 l 1.08407,-0.0978 0.1224,-3.136 c 0.0673,-1.7248 0.15855,-3.17214 0.20272,-3.21631 0.23389,-0.23389 9.32919,6.29553 9.32919,6.69734 0,0.1673 -1.99856,2.24802 -4.44124,4.62381 -3.73386,3.6316 -4.49133,4.29154 -4.75565,4.14332 -0.2847,-0.15964 -0.3144,-0.52018 -0.3144,-3.81745 0,-2.00264 -0.04,-3.67002 -0.0889,-3.70529 -0.0489,-0.0353 -2.16893,-0.0102 -4.7112,0.0557 -2.54227,0.0659 -10.82243,0.20906 -18.40035,0.31814 -19.23795,0.27693 -38.831,0.54616 -41.17343,0.56577 -2.06023,0.0173 -2.32585,0.0759 -2.3343,0.51577 -0.003,0.14667 -0.0945,3.18673 -0.20379,6.75568 -0.26375,8.61547 -0.71294,32.6088 -1.02078,54.52449 l -0.12035,8.56806 0.42591,0.0954 c 0.38764,0.0868 4.21024,0.45569 4.73709,0.45713 0.12223,3.6e-4 0.22223,0.0776 0.22223,0.17175 0,0.0941 -1.37178,2.25416 -3.0484,4.80009 -3.22327,4.89447 -3.40523,5.08339 -4.16475,4.32387 z m 71.05361,-75.18353 c 0.2062,-0.24845 0.19314,-0.27842 -0.0968,-0.22222 -0.18434,0.0357 -0.36847,0.16495 -0.40916,0.28717 -0.1056,0.31715 0.224,0.27484 0.506,-0.065 z"
         style="fill:#000000;fill-opacity:1;stroke:#000000;stroke-width:0.17778116;stroke-opacity:1" />
      <path
         inkscape:connector-curvature="0"
         id="path4076"
         d="m 330.21589,494.95024 c -2.54164,-3.42702 -5.0471,-7.08801 -4.95396,-7.23873 0.0444,-0.0718 1.38341,-0.18698 2.97557,-0.25587 1.59215,-0.0689 3.06778,-0.16772 3.27916,-0.21962 0.32002,-0.0786 0.40217,-0.26286 0.49095,-1.10128 0.0994,-0.93856 0.44444,-17.00525 1.07352,-49.98562 0.14454,-7.57792 0.31476,-15.31272 0.37825,-17.18845 l 0.11545,-3.41041 1.0899,-0.094 c 0.59945,-0.0517 4.72998,-0.13756 9.17895,-0.19077 32.24339,-0.38564 57.34975,-0.8506 57.56524,-1.06609 0.0621,-0.0622 0.17672,-1.52342 0.25461,-3.24726 0.0779,-1.72385 0.16305,-3.1557 0.18925,-3.1819 0.0721,-0.0721 2.8762,1.85059 6.30324,4.32209 1.90208,1.37173 3.06672,2.32651 3.06672,2.5141 0,0.2746 -1.32096,1.62632 -6.95505,7.117 -1.70773,1.66427 -1.92447,1.82086 -2.26671,1.6377 -0.36725,-0.19655 -0.37842,-0.31067 -0.37842,-3.86779 l 0,-3.66527 -5.37788,0.11938 c -7.17449,0.15925 -24.37275,0.41651 -42.9786,0.64287 -8.36016,0.10171 -15.8544,0.23067 -16.65387,0.28656 l -1.45358,0.10163 -0.0989,0.65181 c -0.0544,0.3585 -0.1787,4.09188 -0.27621,8.29641 -0.0975,4.20452 -0.22168,9.36462 -0.27593,11.46688 -0.0543,2.10226 -0.21284,10.86243 -0.35242,19.46704 -0.13958,8.60461 -0.30739,18.93612 -0.37291,22.95892 l -0.11913,7.31419 0.51242,0.0976 c 0.28182,0.0537 1.15242,0.14577 1.93466,0.20471 2.14665,0.16172 2.93339,0.2918 2.93339,0.48499 0,0.0962 -1.36977,2.24719 -3.04394,4.77991 -2.77305,4.19514 -3.08812,4.60494 -3.54034,4.60494 -0.43046,0 -0.72843,-0.31287 -2.24342,-2.3556 z m 72.65114,-73.21188 c 0,-0.10355 -0.08,-0.13883 -0.17778,-0.0784 -0.0978,0.0604 -0.17778,0.14515 -0.17778,0.18827 0,0.0431 0.08,0.0784 0.17778,0.0784 0.0978,0 0.17778,-0.0847 0.17778,-0.18827 z"
         style="fill:#000000;fill-opacity:1;stroke:#000000;stroke-width:0.17778116;stroke-opacity:1" />
      <text
         transform="matrix(0,1,-1,0,0,0)"
         sodipodi:linespacing="125%"
         id="text4078"
         y="-420.23343"
         x="407.27567"
         style="font-size:24px;font-style:normal;font-variant:normal;font-weight:normal;font-stretch:normal;text-align:start;line-height:125%;letter-spacing:0px;word-spacing:0px;writing-mode:lr-tb;text-anchor:start;fill:#000000;fill-opacity:1;stroke:none;font-family:Sans;-inkscape-font-specification:Sans"
         xml:space="preserve"><tspan
           y="-420.23343"
           x="407.27567"
           id="tspan4080"
           sodipodi:role="line">Y</tspan></text>
      <text
         transform="matrix(0,1,-1,0,0,0)"
         sodipodi:linespacing="125%"
         id="text4078-2"
         y="-324.54239"
         x="502.85703"
         style="font-size:24px;font-style:normal;font-variant:normal;font-weight:normal;font-stretch:normal;text-align:start;line-height:125%;letter-spacing:0px;word-spacing:0px;writing-mode:lr-tb;text-anchor:start;fill:#000000;fill-opacity:1;stroke:none;font-family:Sans;-inkscape-font-specification:Sans"
         xml:space="preserve"><tspan
           y="-324.54239"
           x="502.85703"
           id="tspan4080-7"
           sodipodi:role="line">X</tspan></text>
      <g
         id="g4199"
         transform="matrix(1.1172737,0,0,1,-63.143194,0)"
         style="stroke-width:2.83819008;stroke-miterlimit:4;stroke-dasharray:none">
        <path
           inkscape:connector-curvature="0"
           id="path4177"
           d="m 521.64361,226.47176 c 0.58668,0.0369 4.44269,1.8158 8.56892,3.9531 l 7.50223,3.88599 -7.8893,3.86928 c -4.33912,2.1281 -8.19513,3.86928 -8.56892,3.86928 -0.37379,0 -0.67962,-3.52007 -0.67962,-7.82237 0,-4.30231 0.48001,-7.79218 1.06669,-7.75528 z"
           style="fill:#000000;fill-opacity:1;stroke:#000000;stroke-width:2.83819008;stroke-miterlimit:4;stroke-opacity:1;stroke-dasharray:none" />
        <path
           inkscape:connector-curvature="0"
           id="path4177-3"
           d="m 288.40081,240.5986 c -0.58668,-0.0369 -4.4427,-1.8158 -8.56893,-3.9531 l -7.50223,-3.88599 7.8893,-3.86928 c 4.33912,-2.12811 8.19514,-3.86928 8.56893,-3.86928 0.37379,0 0.67962,3.52007 0.67962,7.82237 0,4.30231 -0.48001,7.79218 -1.06669,7.75528 z"
           style="fill:#000000;fill-opacity:1;stroke:#000000;stroke-width:2.83819008;stroke-miterlimit:4;stroke-opacity:1;stroke-dasharray:none" />
        <path
           transform="matrix(0,1,-1,0,929.34195,156.00845)"
           inkscape:connector-curvature="0"
           id="path4197"
           d="m 78.223714,402.39423 -1.42225,247.47139 1.42225,0"
           style="fill:none;stroke:#000000;stroke-width:2.83819008;stroke-linecap:butt;stroke-linejoin:miter;stroke-miterlimit:4;stroke-opacity:1;stroke-dasharray:none" />
      </g>
      <path
         style="fill:#000000;fill-opacity:1;stroke:#000000;stroke-width:3;stroke-miterlimit:4;stroke-opacity:1;stroke-dasharray:none"
         d="m 179.87105,714.18817 c -0.0369,0.86189 -1.8158,6.52673 -3.9531,12.58855 l -3.88599,11.02149 -3.86928,-11.59013 c -2.1281,-6.37458 -3.86928,-12.03942 -3.86928,-12.58855 0,-0.54914 3.52007,-0.99843 7.82237,-0.99843 4.30231,0 7.79218,0.70518 7.75528,1.56707 z"
         id="path4177-2"
         inkscape:connector-curvature="0" />
      <path
         style="fill:#000000;fill-opacity:1;stroke:#000000;stroke-width:3;stroke-miterlimit:4;stroke-opacity:1;stroke-dasharray:none"
         d="m 165.74421,371.53238 c 0.0369,-0.86189 1.8158,-6.52674 3.9531,-12.58857 l 3.88599,-11.02148 3.86928,11.59013 c 2.12811,6.37457 3.86928,12.03943 3.86928,12.58857 0,0.54913 -3.52007,0.99842 -7.82237,0.99842 -4.30231,0 -7.79218,-0.70518 -7.75528,-1.56707 z"
         id="path4177-3-1"
         inkscape:connector-curvature="0" />
      <path
         style="fill:none;stroke:#000000;stroke-width:3;stroke-linecap:butt;stroke-linejoin:miter;stroke-miterlimit:4;stroke-opacity:1;stroke-dasharray:none"
         d="m 172.11065,721.98043 1.42225,-363.55893 -1.42225,0"
         id="path4197-6"
         inkscape:connector-curvature="0" />
      <path
         sodipodi:type="spiral"
         style="fill:none;stroke:#000000;stroke-width:13.42596245;stroke-linecap:butt;stroke-linejoin:miter;stroke-miterlimit:4;stroke-opacity:1;stroke-dasharray:none"
         id="path4231"
         sodipodi:cx="318.58386"
         sodipodi:cy="847.55829"
         sodipodi:expansion="1"
         sodipodi:revolution="3"
         sodipodi:radius="225.63168"
         sodipodi:argument="-18.261553"
         sodipodi:t0="0.74196923"
         d="M 247.78794,999.26405 C 156.89787,964.50722 115.00041,857.98977 149.83946,768.81101 188.96735,668.65399 306.80793,622.63647 405.28249,661.77525 c 109.42643,43.49161 159.5669,172.66499 116.12305,280.43302 -4.24575,10.53213 -9.29527,20.7392 -15.08483,30.50805"
         transform="matrix(0,0.21819439,-0.22882744,0,612.80905,463.098)" />
      <path
         style="fill:#000000;fill-opacity:1;stroke:#000000;stroke-width:3;stroke-miterlimit:4;stroke-opacity:1;stroke-dasharray:none"
         d="m 402.03755,581.64092 c -0.82295,-0.25871 -5.83437,-3.44319 -11.13647,-7.07655 l -9.64017,-6.60616 12.19664,-0.73768 c 6.70816,-0.40575 12.63065,-0.6214 13.16107,-0.47928 0.53042,0.14217 0.0534,3.65854 -1.06018,7.81424 -1.11351,4.15572 -2.69791,7.34416 -3.52089,7.08543 z"
         id="path4177-3-1-8"
         inkscape:connector-curvature="0" />
    </g>
    <text
       xml:space="preserve"
       style="font-size:24px;font-style:normal;font-variant:normal;font-weight:normal;font-stretch:normal;text-align:start;line-height:125%;letter-spacing:0px;word-spacing:0px;writing-mode:lr-tb;text-anchor:start;fill:#000000;fill-opacity:1;stroke:none;font-family:Sans;-inkscape-font-specification:Sans"
       x="344.50504"
       y="383.14154"
       id="text4078-6"
       sodipodi:linespacing="125%"><tspan
         sodipodi:role="line"
         id="tspan4080-1"
         x="344.50504"
         y="383.14154">Front</tspan></text>
    <text
       xml:space="preserve"
       style="font-size:24px;font-style:normal;font-variant:normal;font-weight:normal;font-stretch:normal;text-align:start;line-height:125%;letter-spacing:0px;word-spacing:0px;writing-mode:lr-tb;text-anchor:start;fill:#000000;fill-opacity:1;stroke:none;font-family:Sans;-inkscape-font-specification:Sans"
       x="598.77911"
       y="553.48712"
       id="text4078-6-4"
       sodipodi:linespacing="125%"><tspan
         sodipodi:role="line"
         id="tspan4080-1-2"
         x="598.77911"
         y="553.48712">Right</tspan></text>
    <text
       xml:space="preserve"
       style="font-size:24px;font-style:normal;font-variant:normal;font-weight:normal;font-stretch:normal;text-align:start;line-height:125%;letter-spacing:0px;word-spacing:0px;writing-mode:lr-tb;text-anchor:start;fill:#000000;fill-opacity:1;stroke:none;font-family:Sans;-inkscape-font-specification:Sans"
       x="9.4671431"
       y="554.4906"
       id="text4078-6-5"
       sodipodi:linespacing="125%"><tspan
         sodipodi:role="line"
         id="tspan4080-1-7"
         x="9.4671431"
         y="554.4906">Roll</tspan></text>
    <text
       xml:space="preserve"
       style="font-size:24px;font-style:normal;font-variant:normal;font-weight:normal;font-stretch:normal;text-align:start;line-height:125%;letter-spacing:0px;word-spacing:0px;writing-mode:lr-tb;text-anchor:start;fill:#000000;fill-opacity:1;stroke:none;font-family:Sans;-inkscape-font-specification:Sans"
       x="370.3295"
       y="794.85077"
       id="text4078-6-5-6"
       sodipodi:linespacing="125%"><tspan
         sodipodi:role="line"
         id="tspan4080-1-7-1"
         x="370.3295"
         y="794.85077">Pitch</tspan></text>
    <text
       xml:space="preserve"
       style="font-size:24px;font-style:normal;font-variant:normal;font-weight:normal;font-stretch:normal;text-align:start;line-height:125%;letter-spacing:0px;word-spacing:0px;writing-mode:lr-tb;text-anchor:start;fill:#000000;fill-opacity:1;stroke:none;font-family:Sans;-inkscape-font-specification:Sans"
       x="352.93979"
       y="453.51093"
       id="text4078-6-5-6-8"
       sodipodi:linespacing="125%"><tspan
         sodipodi:role="line"
         id="tspan4080-1-7-1-9"
         x="352.93979"
         y="453.51093">Yaw</tspan></text>
    <text
       xml:space="preserve"
       style="font-size:40px;font-style:normal;font-weight:normal;line-height:125%;letter-spacing:0px;word-spacing:0px;fill:#000000;fill-opacity:1;stroke:none;font-family:Sans"
       x="432.3638"
       y="517.59644"
       id="text4836"
       sodipodi:linespacing="125%"><tspan
         sodipodi:role="line"
         id="tspan4838"
         x="432.3638"
         y="517.59644">+</tspan></text>
  </g>
</svg>
