<?xml version="1.0" encoding="UTF-8" standalone="no"?>
<!-- Created with Inkscape (http://www.inkscape.org/) -->

<svg
   xmlns:dc="http://purl.org/dc/elements/1.1/"
   xmlns:cc="http://creativecommons.org/ns#"
   xmlns:rdf="http://www.w3.org/1999/02/22-rdf-syntax-ns#"
   xmlns:svg="http://www.w3.org/2000/svg"
   xmlns="http://www.w3.org/2000/svg"
   xmlns:sodipodi="http://sodipodi.sourceforge.net/DTD/sodipodi-0.dtd"
   xmlns:inkscape="http://www.inkscape.org/namespaces/inkscape"
   width="63.811859"
   height="60.307003"
   id="svg3101"
   version="1.1"
   inkscape:version="0.48.4 r9939"
   sodipodi:docname="nav6_icon.svg">
  <defs
     id="defs3103" />
  <sodipodi:namedview
     id="base"
     pagecolor="#ffffff"
     bordercolor="#666666"
     borderopacity="1.0"
     inkscape:pageopacity="0.0"
     inkscape:pageshadow="2"
     inkscape:zoom="10.794766"
     inkscape:cx="16.528107"
     inkscape:cy="30.153502"
     inkscape:document-units="px"
     inkscape:current-layer="layer1"
     showgrid="false"
     fit-margin-top="0"
     fit-margin-left="0"
     fit-margin-right="0"
     fit-margin-bottom="0"
     showguides="true"
     inkscape:guide-bbox="true"
     inkscape:window-width="1600"
     inkscape:window-height="838"
     inkscape:window-x="-8"
     inkscape:window-y="-8"
     inkscape:window-maximized="1" />
  <metadata
     id="metadata3106">
    <rdf:RDF>
      <cc:Work
         rdf:about="">
        <dc:format>image/svg+xml</dc:format>
        <dc:type
           rdf:resource="http://purl.org/dc/dcmitype/StillImage" />
        <dc:title />
      </cc:Work>
    </rdf:RDF>
  </metadata>
  <g
     inkscape:label="Layer 1"
     inkscape:groupmode="layer"
     id="layer1"
     transform="translate(-37.041044,-435.84993)">
    <path
       sodipodi:type="spiral"
       style="fill:none;stroke:#000000;stroke-width:11.78589725;stroke-linecap:butt;stroke-linejoin:miter;stroke-miterlimit:4;stroke-opacity:1;stroke-dasharray:none"
       id="path4231"
       sodipodi:cx="318.58386"
       sodipodi:cy="847.55829"
       sodipodi:expansion="1"
       sodipodi:revolution="3"
       sodipodi:radius="225.63168"
       sodipodi:argument="-18.261553"
       sodipodi:t0="0.74196923"
       d="M 247.78794,999.26405 C 156.89787,964.50722 115.00041,857.98977 149.83946,768.81101 188.96735,668.65399 306.80793,622.63647 405.28249,661.77525 c 109.42643,43.49161 159.5669,172.66499 116.12305,280.43302 -4.24575,10.53213 -9.29527,20.7392 -15.08483,30.50805"
       transform="matrix(0.1162478,0,0,0.12526776,32.92705,357.50258)" />
    <path
       style="fill:#000000;fill-opacity:1;stroke:#000000;stroke-width:1.19288921;stroke-miterlimit:4;stroke-opacity:1;stroke-dasharray:none"
       d="m 95.810995,476.55592 c -0.190641,0.27525 -1.987313,1.77107 -3.992572,3.32407 l -3.645937,2.82364 1.019049,-4.5917 c 0.560468,-2.52546 1.111634,-4.73915 1.224771,-4.91932 0.11315,-0.18015 1.451237,0.39024 2.973515,1.26762 1.522296,0.87738 2.61181,1.82042 2.421165,2.09569 z"
       id="path4177-3-1-8"
       inkscape:connector-curvature="0" />
    <text
       xml:space="preserve"
       style="font-size:40px;font-style:oblique;font-variant:normal;font-weight:normal;font-stretch:normal;text-align:start;line-height:125%;letter-spacing:0px;word-spacing:0px;writing-mode:lr-tb;text-anchor:start;fill:#000000;fill-opacity:1;stroke:none;font-family:Sans;-inkscape-font-specification:Sans Oblique"
       x="58.881725"
       y="478.3006"
       id="text2993"
       sodipodi:linespacing="125%"><tspan
         sodipodi:role="line"
         id="tspan2995"
         x="58.881725"
         y="478.3006"
         style="font-size:40px;font-style:oblique;font-variant:normal;font-weight:normal;font-stretch:normal;text-align:start;line-height:125%;writing-mode:lr-tb;text-anchor:start;font-family:Sans;-inkscape-font-specification:Sans Oblique">6</tspan></text>
    <path
       style="fill:none;stroke:#000000;stroke-width:1.5;stroke-linecap:butt;stroke-linejoin:miter;stroke-opacity:1;stroke-miterlimit:4;stroke-dasharray:none"
       d="m 42.136106,443.76437 0,48.18362 0,0 0,0"
       id="path45649"
       inkscape:connector-curvature="0" />
    <path
       style="fill:none;stroke:#000000;stroke-width:1.5;stroke-linecap:butt;stroke-linejoin:miter;stroke-opacity:1;stroke-miterlimit:4;stroke-dasharray:none"
       d="m 42.041205,491.34205 53.826906,-0.0972"
       id="path45651"
       inkscape:connector-curvature="0" />
    <path
       style="fill:#000000;fill-opacity:1;stroke:#000000;stroke-width:1.19288921;stroke-miterlimit:4;stroke-opacity:1;stroke-dasharray:none"
       d="m 87.227147,487.71303 c 0.334117,0.0216 2.541666,0.7913 4.90563,1.7103 l 4.298122,1.67089 -4.460717,1.4914 c -2.453387,0.82031 -4.634767,1.488 -4.847479,1.48381 -0.212704,-0.004 -0.412947,-1.44496 -0.444924,-3.20169 -0.03196,-1.75674 0.215215,-3.17635 0.549342,-3.1547 z"
       id="path4177-3-1-8-9"
       inkscape:connector-curvature="0" />
    <path
       style="fill:#000000;fill-opacity:1;stroke:#000000;stroke-width:1.19288921;stroke-miterlimit:4;stroke-opacity:1;stroke-dasharray:none"
       d="m 38.772738,448.42046 c 0.0216,-0.33411 0.7913,-2.54166 1.7103,-4.90563 l 1.67089,-4.29812 1.4914,4.46072 c 0.82031,2.45339 1.488,4.63477 1.48381,4.84748 -0.004,0.2127 -1.44496,0.41294 -3.20169,0.44492 -1.75674,0.032 -3.17635,-0.21521 -3.1547,-0.54934 z"
       id="path4177-3-1-8-9-4"
       inkscape:connector-curvature="0" />
  </g>
</svg>
